<?xml version="1.0" encoding="UTF-8" standalone="no"?>
<!-- Created with Inkscape (http://www.inkscape.org/) -->

<svg
   xmlns:dc="http://purl.org/dc/elements/1.1/"
   xmlns:cc="http://creativecommons.org/ns#"
   xmlns:rdf="http://www.w3.org/1999/02/22-rdf-syntax-ns#"
   xmlns:svg="http://www.w3.org/2000/svg"
   xmlns="http://www.w3.org/2000/svg"
   xmlns:sodipodi="http://sodipodi.sourceforge.net/DTD/sodipodi-0.dtd"
   xmlns:inkscape="http://www.inkscape.org/namespaces/inkscape"
   width="100"
   height="100"
   viewBox="0 0 26.458333 26.458334"
   version="1.1"
   id="svg8"
   inkscape:version="0.92.4 (f8dce91, 2019-08-02)"
   sodipodi:docname="key.svg">
  <defs
     id="defs2">
    <style
       id="style29">.cls-1{fill:#00bed7;}</style>
  </defs>
  <sodipodi:namedview
     id="base"
     pagecolor="#ffffff"
     bordercolor="#666666"
     borderopacity="1.0"
     inkscape:pageopacity="0.0"
     inkscape:pageshadow="2"
     inkscape:zoom="0.55"
     inkscape:cx="428.18182"
     inkscape:cy="202.74218"
     inkscape:document-units="mm"
     inkscape:current-layer="g133"
     showgrid="false"
     units="px"
     borderlayer="true"
     inkscape:window-width="1315"
     inkscape:window-height="713"
     inkscape:window-x="51"
     inkscape:window-y="27"
     inkscape:window-maximized="1" />
  <metadata
     id="metadata5">
    <rdf:RDF>
      <cc:Work
         rdf:about="">
        <dc:format>image/svg+xml</dc:format>
        <dc:type
           rdf:resource="http://purl.org/dc/dcmitype/StillImage" />
        <dc:title></dc:title>
      </cc:Work>
    </rdf:RDF>
  </metadata>
  <g
     inkscape:label="Layer 1"
     inkscape:groupmode="layer"
     id="layer1"
     transform="translate(0,-270.54165)">
    <g
       id="g86"
       transform="matrix(0.26458333,0,0,0.26458333,-52.90634,204.80788)">
      <path
         id="path51"
         d="M 117.39549,63.190399 C 115.71579,61.444302 113.8252,60.75 111.90329,60.75 c -3.65329,0 -7.4209,2.505901 -10.0752,5.0615 -0.0449,0.043 -12.809497,10.629899 -17.148395,14.909203 -0.787102,0.775398 -2.320297,1.404297 -3.424805,1.404297 -4.238296,4.751 -10.401397,7.75 -17.254394,7.75 -6.852997,0 -13.016602,-2.999 -17.254902,-7.75 h -0.376 c -1.104499,0 -2.6758,-0.586899 -3.5097,-1.3115 L 25.799795,65.986298 c -2.6045,-2.505799 -6.289999,-5.146496 -9.864299,-5.147397 -1.5883,0 -3.1547,0.5224 -4.5947,1.809498 -5.0404996,4.502999 -1.8501,10.366204 2.147,14.194397 0.083,0.0771 19.162098,18.354508 19.162098,18.354508 0,0 7.503399,7.956996 8.037601,12.780196 V 119.5 c 0,4.6943 3.805199,8.5 8.5,8.5 h 30.688504 c 4.694297,0 8.5,-3.8057 8.5,-8.5 v -11.5225 c 0.531196,-4.8232 7.572197,-12.780196 7.572197,-12.780196 L 114.6357,76.654297 c 3.41219,-3.509796 6.834,-9.223595 2.75979,-13.463898 z"
         inkscape:connector-curvature="0" />
      <circle
         id="circle53"
         r="19.125376"
         cy="66.750999"
         cx="64.000374" />
      <circle
         id="circle55"
         r="10"
         cy="43"
         cx="18" />
      <circle
         id="circle57"
         r="10"
         cy="10"
         cx="64" />
      <path
         id="path59"
         d="m 35.993195,11 c -1.8135,0 -3.649899,0.4932 -5.300299,1.5273 -4.679701,2.9307 -6.0991,9.096701 -3.1656,13.7803 1.899,3.0313 5.152399,4.6924 8.479998,4.6924 1.813503,0 3.649002,-0.4932 5.299801,-1.5273 4.679698,-2.9307 6.098701,-9.096701 3.165599,-13.7803 C 42.573696,12.6611 39.320797,11 35.993195,11 Z"
         inkscape:connector-curvature="0" />
      <path
         id="path61"
         d="M 86.690392,28.471701 C 88.341797,29.5068 90.177696,30 91.992195,30 95.31929,30 98.571297,28.3398 100.4707,25.309601 103.4063,20.627001 101.9873,14.4609 97.309593,11.5293 95.658196,10.4941 93.821297,10.001 92.00679,10.001 c -3.327095,0 -6.579094,1.6601 -8.478492,4.6904 -2.934502,4.6826 -1.516602,10.847701 3.162094,13.780301 z"
         inkscape:connector-curvature="0" />
      <circle
         id="circle63"
         r="10"
         cy="43"
         cx="110" />
      <text
         id="text65"
         font-weight="bold"
         font-size="5px"
         y="143"
         x="0"
         style="font-weight:bold;font-size:5px;font-family:'Helvetica Neue', Helvetica, Arial-Unicode, Arial, Sans-serif;fill:#000000">Created by priyanka</text>
      <text
         id="text67"
         font-weight="bold"
         font-size="5px"
         y="148"
         x="0"
         style="font-weight:bold;font-size:5px;font-family:'Helvetica Neue', Helvetica, Arial-Unicode, Arial, Sans-serif;fill:#000000">from the Noun Project</text>
    </g>
    <g
       id="g114"
       transform="matrix(0.28882029,0,0,0.28882029,41.121486,201.50025)">
      <g
         id="g90">
        <path
           id="path88"
           d="m 83,10.669 c 3.491,0 6.331,3.157 6.331,7.037 v 38.118 c 0,3.88 -2.84,7.037 -6.331,7.037 h -3 c -1.113,0 -2.201,0.327 -3.129,0.942 l -17.346,11.478 2.377,-3.67 c 1.129,-1.744 1.214,-3.965 0.222,-5.79 C 61.132,63.996 59.221,62.86 57.143,62.86 H 17 c -3.491,0 -6.331,-3.157 -6.331,-7.037 V 17.706 c 0,-3.88 2.84,-7.037 6.331,-7.037 H 83 M 83,5 H 17 C 10.4,5 5,10.718 5,17.706 V 55.824 C 5,62.812 10.4,68.53 17,68.53 H 57.143 L 40,95 80,68.529 h 3 c 6.6,0 12,-5.718 12,-12.706 V 17.706 C 95,10.718 89.6,5 83,5 Z"
           inkscape:connector-curvature="0" />
      </g>
      <g
         id="g94">
        <polygon
           id="polygon92"
           points="63.906,57.798 50,50.487 36.094,57.798 38.75,42.313 27.5,31.347 43.047,29.088 50,15 56.953,29.088 72.5,31.347 61.25,42.313 " />
      </g>
    </g>
    <g
       id="g133"
       transform="matrix(0.26458333,0,0,0.26458333,-47.605333,306.31357)">
      <path
         id="path116"
         d="m 239.77167,-130.20096 c 2.463,0 4.922,0 7.386,0 0.511,0.113 1.016,0.233 1.535,0.338 8.028,1.609 14.307,5.811 18.789,12.68 2.305,3.538 3.5,7.489 4.282,11.592 0,2.346 0,4.686 0,7.031002 -0.096,0.456 -0.203,0.912 -0.294,1.368 -2.823,15.083 -16.314,25.006 -31.556,23.152 -1.184,-0.143 -1.865,0.253 -2.519,1.12 -1.942,2.565 -3.961,5.082 -5.884,7.669 -0.808,1.091 -1.769,1.417 -3.049,1.132 -1.485,-0.33 -2.988,-0.582 -4.477,-0.92 -1.027,-0.231 -1.774,-0.003 -2.411,0.897 -1.121,1.577 -2.483,2.991 -3.488,4.631 -1.209,1.956 -2.89,2.684 -5.076,2.868 -2.908,0.247 -4.125,1.406 -4.773,4.224 -0.456,1.994 -0.967,3.988 -1.28,6.013 -0.253,1.634 -1.109,2.397 -2.653,2.805 -4.018,1.07 -8,2.26 -11.997,3.4 -0.352,0 -0.703,0 -1.055,0 -0.758,-0.479 -0.989,-1.242 -1.203,-2.052 -0.631,-2.368 -1.307,-4.725 -1.961,-7.09 0,-0.582 0,-1.17 0,-1.758 9.443,-12.244 18.858,-24.516 28.364,-36.713 1.197,-1.532 1.359,-2.759 0.682,-4.588 -4.238,-11.409002 -0.646,-24.024002 8.797,-31.688002 4.076,-3.299 8.798,-5.042 13.841,-6.111 z m 5.001,18.136 c -0.027,3.661 2.747,6.463 6.399,6.463 3.555,0 6.356,-2.765 6.395,-6.317 0.041,-3.521 -2.917,-6.525 -6.44,-6.533 -3.486,-0.012 -6.327,2.842 -6.354,6.387 z"
         inkscape:connector-curvature="0" />
    </g>
    <g
       id="g182"
       transform="matrix(0.96035399,0,0,0.96035399,91.689602,232.41036)">
      <g
         id="g155"
         transform="matrix(0.26834352,0,0,0.26834352,-52.037618,8.004685)">
        <path
           id="path135"
           d="m 77.33,56.194 c 2.494,-4.135 5.001,-8.26 7.473,-12.407 1.747,-2.931 1.155,-6.498 -1.36,-8.501 -3.053,-2.431 -7.382,-1.814 -9.517,1.459 -1.581,2.424 -2.964,4.977 -4.526,7.413 -0.665,1.038 -1.474,2.023 -2.379,2.859 -1.797,1.661 -3.899,1.929 -6.166,0.994 -1.664,-0.686 -3.1,-1.706 -4.396,-2.929 -4.739,-4.478 -9.47,-8.968 -14.205,-13.451 -3.245,-3.072 -6.461,-6.174 -9.749,-9.199 -2.197,-2.021 -5.514,-1.864 -7.512,0.232 -2.006,2.105 -1.97,5.395 0.113,7.519 0.873,0.89 1.803,1.724 2.707,2.584 6.885,6.545 13.771,13.088 20.654,19.634 2.596,2.469 5.233,4.898 7.764,7.431 4.019,4.021 2.385,10.766 -3.032,12.485 -1.22,0.387 -2.566,0.379 -3.907,0.56 0.524,2.572 -0.025,4.985 -1.954,7.005 -1.919,2.01 -4.339,2.592 -7.034,2.281 0.623,4.675 -0.779,7.091 -5.431,9.417 0.221,0.415 0.424,0.842 0.666,1.246 3.889,6.461 11.985,8.987 18.856,5.799 5.287,-2.454 10.545,-4.975 15.773,-7.556 7.708,-3.806 10.579,-12.416 6.811,-20.174 -1.141,-2.351 -2.236,-4.724 -3.398,-7.064 -0.285,-0.574 -0.287,-1.005 0.052,-1.549 1.257,-2.015 2.471,-4.055 3.697,-6.088 z"
           inkscape:connector-curvature="0" />
        <path
           id="path137"
           d="m 24.409,65.563 c 4.596,4.335 9.175,8.69 13.794,12.999 2.222,2.073 5.535,1.912 7.591,-0.275 1.988,-2.116 1.955,-5.47 -0.188,-7.51 -5.245,-4.995 -10.534,-9.946 -15.813,-14.905 -1.011,-0.949 -2.245,-1.383 -3.08,-1.399 -2.718,0.004 -4.676,1.299 -5.486,3.267 -0.854,2.076 -0.382,4.401 1.244,6.009 0.629,0.623 1.295,1.207 1.938,1.814 z"
           inkscape:connector-curvature="0" />
        <path
           id="path139"
           d="m 47.448,69.27 c 1.655,1.464 3.664,1.643 5.655,0.737 2.056,-0.936 3.047,-2.655 3.1,-4.156 0.026,-2.693 -1.027,-4.055 -2.367,-5.304 -3.002,-2.799 -5.969,-5.636 -8.95,-8.457 -1.958,-1.854 -3.893,-3.731 -5.875,-5.558 -3.186,-2.937 -8.05,-1.49 -9.009,2.683 -0.462,2.011 0.156,3.74 1.637,5.151 2.856,2.719 5.725,5.424 8.591,8.132 2.397,2.265 4.748,4.586 7.218,6.772 z"
           inkscape:connector-curvature="0" />
        <path
           id="path141"
           d="m 36.471,80.1 c -0.717,-0.705 -1.466,-1.376 -2.195,-2.068 -3.56,-3.375 -7.12,-6.75 -10.675,-10.13 -1.119,-1.063 -2.389,-1.762 -3.836,-1.746 -2.801,-0.015 -4.937,1.723 -5.458,4.341 -0.462,2.315 0.568,4.018 2.191,5.537 4.199,3.928 8.355,7.903 12.537,11.849 2.28,2.15 5.596,2.138 7.696,-0.007 2.13,-2.175 2.023,-5.531 -0.26,-7.776 z"
           inkscape:connector-curvature="0" />
        <path
           id="path143"
           d="m 73.141,29.905 c 0.64,0.359 1.45,0.131 1.809,-0.509 l 8.106,-14.492 c 0.237,-0.571 0.049,-1.229 -0.453,-1.589 -0.596,-0.427 -1.426,-0.29 -1.853,0.306 l -8.118,14.474 c -0.359,0.64 -0.131,1.45 0.509,1.81 z"
           inkscape:connector-curvature="0" />
        <path
           id="path145"
           d="m 47.816,29.613 c 0.199,0.706 0.932,1.118 1.638,0.919 0.706,-0.199 1.117,-0.932 0.919,-1.638 L 45.936,13.123 c -0.199,-0.706 -0.932,-1.117 -1.638,-0.919 -0.706,0.199 -1.118,0.932 -0.919,1.638 z"
           inkscape:connector-curvature="0" />
        <path
           id="path147"
           d="m 63.101,19.083 c 0.735,-0.016 1.317,-0.625 1.301,-1.359 L 63.921,1.301 C 63.905,0.567 63.297,-0.016 62.562,0 61.827,0.016 61.245,0.625 61.261,1.359 l 0.481,16.422 c 0.016,0.736 0.625,1.318 1.359,1.302 z"
           inkscape:connector-curvature="0" />
        <polygon
           id="polygon149"
           points="62.672,32.27 65.571,32.89 64.294,30.214 65.779,27.643 62.838,28.029 60.859,25.826 60.319,28.738 57.609,29.942 60.216,31.361 60.521,34.311 " />
        <polygon
           id="polygon151"
           points="53.532,12.02 55.082,13.605 55.398,11.419 57.386,10.439 55.399,9.459 55.079,7.266 53.531,8.853 51.35,8.481 52.384,10.439 51.355,12.398 " />
        <polygon
           id="polygon153"
           points="71.529,18.493 73.4,19.677 73.2,17.47 74.899,16.054 72.74,15.565 71.915,13.513 70.786,15.411 68.579,15.563 70.04,17.221 69.492,19.369 " />
      </g>
    </g>
  </g>
</svg>
