<?xml version="1.0" encoding="UTF-8" standalone="no"?>
<svg
   xmlns:dc="http://purl.org/dc/elements/1.1/"
   xmlns:cc="http://creativecommons.org/ns#"
   xmlns:rdf="http://www.w3.org/1999/02/22-rdf-syntax-ns#"
   xmlns:svg="http://www.w3.org/2000/svg"
   xmlns="http://www.w3.org/2000/svg"
   xmlns:sodipodi="http://sodipodi.sourceforge.net/DTD/sodipodi-0.dtd"
   xmlns:inkscape="http://www.inkscape.org/namespaces/inkscape"
   viewBox="0 0 110 4"
   width="100%"
   height="100%"
   preserveAspectRatio="none"
   id="svg2"
   version="1.1"
   inkscape:version="0.91 r13725"
   sodipodi:docname="border.svg">
  <metadata
     id="metadata10">
    <rdf:RDF>
      <cc:Work
         rdf:about="">
        <dc:format>image/svg+xml</dc:format>
        <dc:type
           rdf:resource="http://purl.org/dc/dcmitype/StillImage" />
      </cc:Work>
    </rdf:RDF>
  </metadata>
  <defs
     id="defs8" />
  <sodipodi:namedview
     pagecolor="#ffffff"
     bordercolor="#666666"
     borderopacity="1"
     objecttolerance="10"
     gridtolerance="10"
     guidetolerance="10"
     inkscape:pageopacity="0"
     inkscape:pageshadow="2"
     inkscape:window-width="770"
     inkscape:window-height="480"
     id="namedview6"
     showgrid="false"
     inkscape:zoom="3.8414062"
     inkscape:cx="24.021761"
     inkscape:cy="2"
     inkscape:window-x="47"
     inkscape:window-y="24"
     inkscape:window-maximized="0"
     inkscape:current-layer="svg2" />
  <path
     d="M105.2,3.4c-3.8-0.2-7.7-0.3-11.5-0.3c-1.4,0-2.8-0.1-4.2,0.1c-1.7,0.2-3.4-0.2-5-0.2    c-6.9-0.1-13.8-0.1-20.6,0c-4.3,0-8.5,0.2-12.8,0.1c-1.1,0-2,0.3-3.1,0.4c-2.1,0.2-4.1-0.3-6.2-0.2c-1.2,0-2.3,0.4-3.4,0.3    C34.2,3.4,30.1,3.6,26,3.7C20,3.7,14.1,3.8,8.1,4C6.7,4,5.3,4,4,3.7C2.4,3.4,1.1,2.5,0.1,1.4C-0.2,1,0.2,0.8,0.7,0.7    c0.8-0.2,1.5,0.1,2.2,0.1C8,0.7,13.1,0.5,18.2,0.5c5.3-0.1,10.6,0,15.9-0.1c3,0,6-0.1,9-0.1c8.3,0,16.5-0.4,24.8-0.2    c3.7,0.1,7.5,0.1,11.2,0.1c2.5,0,5-0.2,7.5,0.3c0.6,0.1,1.4-0.4,2.1-0.4c6.3,0,12.7-0.3,19,0.8C108,1,108.5,1,108.9,1    c0.4,0,0.6,0.2,0.7,0.5c0.1,0.3,0.2,0.5-0.2,0.8C108.4,3.4,106.9,3.5,105.2,3.4z"
     fill="#00bed7"
     id="path4"
     style="fill:#da83af;fill-opacity:0.94117647" />
</svg>
